<svg xmlns="http://www.w3.org/2000/svg" viewBox="0 0 1024 1024" role="img" aria-labelledby="title desc">
  <title id="title">Alto Nodes logo</title>
  <desc id="desc">White AN mark with a server tower on a black background.</desc>
  <rect width="1024" height="1024" fill="#000"/>
  <g fill="#fff">
    <path d="M222 646 334 371c18-43 50-62 99-62h15c48 0 80 19 98 62l113 275H551l-31-78H360l-31 78H222Zm173-168h90l-45-112-45 112Z"/>
    <path d="M613 646V319h76c36 0 65 15 87 45l128 176V319h91v327h-76c-37 0-66-15-88-46L704 424v222h-91Z"/>
  </g>
  <g transform="translate(686 326)">
    <rect x="0" y="0" width="150" height="332" rx="19" fill="#fff"/>
    <rect x="18" y="18" width="114" height="78" rx="5" fill="#000"/>
    <rect x="18" y="111" width="114" height="78" rx="5" fill="#000"/>
    <rect x="18" y="204" width="114" height="78" rx="5" fill="#000"/>
    <circle cx="108" cy="57" r="9" fill="#fff"/>
    <circle cx="108" cy="150" r="9" fill="#fff"/>
    <circle cx="108" cy="243" r="9" fill="#fff"/>
    <rect x="32" y="50" width="66" height="7" rx="3.5" fill="#fff"/>
    <rect x="32" y="143" width="66" height="7" rx="3.5" fill="#fff"/>
    <rect x="32" y="236" width="66" height="7" rx="3.5" fill="#fff"/>
    <rect x="33" y="292" width="72" height="4" rx="2" fill="#000"/>
    <rect x="33" y="310" width="72" height="4" rx="2" fill="#000"/>
    <circle cx="109" cy="307" r="14" fill="none" stroke="#000" stroke-width="6"/>
  </g>
</svg>
